<svg width="256" height="256" viewBox="0 0 256 256" xmlns="http://www.w3.org/2000/svg">
<rect width="256" height="256" rx="40" fill="#0A0A0F"/>
<rect x="16" y="16" width="224" height="224" rx="32" fill="#111118"/>
<rect x="88" y="56" width="80" height="120" rx="10" fill="#16161F" stroke="#7B4FFF" stroke-width="2"/>
<rect x="110" y="36" width="36" height="28" rx="4" fill="#7B4FFF"/>
<rect x="118" y="42" width="20" height="16" rx="2" fill="#0A0A0F"/>
<rect x="88" y="104" width="80" height="26" fill="#7B4FFF"/>
<text x="128" y="123" text-anchor="middle" font-family="Courier New" font-size="12" font-weight="700" fill="#FFFFFF" letter-spacing="2">PPT</text>
<circle cx="128" cy="158" r="8" fill="#22DD88"/>
<rect x="118" y="172" width="20" height="8" rx="3" fill="#2A2A3A"/>
<rect x="22" y="22" width="14" height="2" rx="1" fill="#7B4FFF"/>
<rect x="22" y="22" width="2" height="14" rx="1" fill="#7B4FFF"/>
<rect x="220" y="22" width="14" height="2" rx="1" fill="#7B4FFF"/>
<rect x="232" y="22" width="2" height="14" rx="1" fill="#7B4FFF"/>
<rect x="22" y="232" width="14" height="2" rx="1" fill="#7B4FFF"/>
<rect x="22" y="220" width="2" height="14" rx="1" fill="#7B4FFF"/>
<rect x="220" y="232" width="14" height="2" rx="1" fill="#7B4FFF"/>
<rect x="232" y="220" width="2" height="14" rx="1" fill="#7B4FFF"/>
</svg>
